<svg xmlns="http://www.w3.org/2000/svg" viewBox="0 0 345.75 345.75"><defs><style>.cls-1{isolation:isolate;}.cls-2,.cls-3,.cls-4,.cls-5{fill:#7cb3e1;}.cls-3,.cls-4,.cls-6{stroke:#1d2088;stroke-width:3.8px;}.cls-3,.cls-6{stroke-miterlimit:10;}.cls-4{stroke-linecap:round;stroke-linejoin:round;}.cls-5{mix-blend-mode:multiply;}.cls-6{fill:#fdd019;}.cls-7{fill:#1d2088;}</style></defs><title>資產 3</title><g class="cls-1"><g id="圖層_2" data-name="圖層 2"><g id="Capa_1" data-name="Capa 1"><circle class="cls-2" cx="172.87" cy="172.88" r="172.88"/><path class="cls-3" d="M223.83,167.24c-23.13-28.48-29.41-54.1-29.41-54.1H162.86s-6.28,25.62-29.41,54.1S97,216.33,102.89,244.45s38,44.49,75.74,44.49,69.83-16.39,75.75-44.49S247,195.71,223.83,167.24Z"/><path class="cls-4" d="M194.42,113.15s10.3-26.71,29.6-40.66c3.29-2.38,5-5.16-2.22-3.61-9,1.95-20.72,14.88-25.07,24.2A122,122,0,0,1,207.2,63.59c1.45-2.75,1.32-5.71-3.34-2-5.77,4.62-11.42,16.2-15.75,28.69,0,0-.85-16.84,1.24-28,.71-3.78.84-6.66-3-1.42-4.42,6.06-8.72,18.38-10.75,27,0,0-1.81-17.57-12.32-29.6-1.82-2.1-5.37-2.67-4,2.38,2.26,8.12,5.44,20.5,6.55,29.92,0,0-8.68-16.93-24.79-27.89-2.33-1.6-4.86-1.51-1.94,3,8.31,12.77,23.68,38.57,23.68,47.42Z"/><path class="cls-5" d="M178.6,113.15H162.86s-6.28,25.62-29.41,54.1S97,216.33,102.89,244.45s38,44.48,75.7,44.49Z"/><path class="cls-5" d="M178.6,77.67c-1.22,3.59-2.25,7.16-3,10.27,0,0-1.81-17.57-12.32-29.6-1.82-2.1-5.37-2.67-4,2.38,2.26,8.12,5.44,20.5,6.55,29.92,0,0-8.68-16.93-24.79-27.89-2.33-1.6-4.86-1.51-1.94,3,8.31,12.77,23.68,38.57,23.68,47.42H178.6Z"/><path class="cls-6" d="M199.11,110a2.15,2.15,0,0,1-2.14,2.15H160.32a2.15,2.15,0,0,1-2.15-2.15h0a2.14,2.14,0,0,1,2.15-2.14H197a2.14,2.14,0,0,1,2.14,2.14Z"/><path class="cls-6" d="M199.11,114.3a2.14,2.14,0,0,1-2.14,2.14H160.32a2.15,2.15,0,0,1-2.15-2.14h0a2.14,2.14,0,0,1,2.15-2.14H197a2.14,2.14,0,0,1,2.14,2.14Z"/><path class="cls-6" d="M199.11,118.58a2.14,2.14,0,0,1-2.14,2.15H160.32a2.14,2.14,0,0,1-2.15-2.15h0a2.14,2.14,0,0,1,2.15-2.14H197a2.14,2.14,0,0,1,2.14,2.14Z"/><path class="cls-7" d="M206.15,202.26l-17.77,2.82a18.64,18.64,0,0,0-2.41-4.71,11.67,11.67,0,0,0-3.55-2.65v13.82q14.52,3.88,19.39,8.17a18.9,18.9,0,0,1,6.45,14.68,20,20,0,0,1-2.32,9.56,23.2,23.2,0,0,1-5.93,7.26,23.78,23.78,0,0,1-7.66,4.23,38,38,0,0,1-9.94,1.56v9h-7v-9A44.26,44.26,0,0,1,164,254.74a22.82,22.82,0,0,1-7.55-4.56,22.52,22.52,0,0,1-4.9-6.28,29.26,29.26,0,0,1-2.58-8.15l19.29-2.24a18.46,18.46,0,0,0,2.32,6.83,12.18,12.18,0,0,0,4.81,3.72V227.18a89.77,89.77,0,0,1-13.69-4.64,18.27,18.27,0,0,1-10-16.83,19,19,0,0,1,6-14.22q5.95-5.71,17.7-6.33v-4.74h7v4.74q10.7.66,16.35,5.07A20.36,20.36,0,0,1,206.15,202.26Zm-30.71-4.78a8.92,8.92,0,0,0-4.25,2.5,5.43,5.43,0,0,0-1.2,3.51,5.79,5.79,0,0,0,1.22,3.66,8.93,8.93,0,0,0,4.23,2.61Zm7,47.06a11.14,11.14,0,0,0,5.95-3,6.83,6.83,0,0,0,1.89-4.68,6.31,6.31,0,0,0-1.59-4.14c-1.07-1.26-3.16-2.43-6.24-3.52Z"/></g></g></g></svg>