<svg xmlns="http://www.w3.org/2000/svg" viewBox="0 0 167.19 155.04"><defs><style>.cls-1{fill:#fff;}.cls-2{fill:#00a1ad;}</style></defs><title>資產 1</title><g id="圖層_2" data-name="圖層 2"><g id="Object"><path class="cls-1" d="M86.63,140.28c-.6,1.36,1,3.41,3.66,4.56l19.2,8.44c2.62,1.15,5.24,1,5.84-.38l.23-.52-28.7-12.62Z"/><path class="cls-1" d="M13.19,108c-.6,1.36,1,3.41,3.66,4.56L36.06,121c2.62,1.15,5.24,1,5.84-.38l.23-.52-28.7-12.62Z"/><path class="cls-2" d="M159.43,62.89,139.24,54a2.54,2.54,0,0,1-1-.77l-22.77-10A2.55,2.55,0,0,1,114.3,43l-5-2.19,0-.07a2.21,2.21,0,0,0,.05-.24L98,35.53c0,.07-.11.12-.14.2l0,.07-4.92-2.17a2.52,2.52,0,0,1-1-.77l-22.77-10A2.56,2.56,0,0,1,68,22.68L47.8,13.8a13,13,0,0,0-17.1,6.65L1.1,87.75a13,13,0,0,0,6.65,17.1l5.71,2.51,0,.1,28.7,12.62,0-.1L86.9,139.66l0,.1,28.7,12.62,0-.1,3.79,1.67a13,13,0,0,0,17.1-6.65L166.09,80A13,13,0,0,0,159.43,62.89ZM99.28,97.33a1.26,1.26,0,0,1-1.66.65L88,93.73a1.25,1.25,0,0,0-1.66.64L82.07,104a1.26,1.26,0,0,1-1.66.65l-8.07-3.55a1.26,1.26,0,0,1-.65-1.66l4.24-9.65a1.26,1.26,0,0,0-.64-1.66l-9.65-4.24A1.26,1.26,0,0,1,65,82.25l3.55-8.08a1.26,1.26,0,0,1,1.66-.65l9.65,4.24a1.26,1.26,0,0,0,1.65-.64l4.24-9.65a1.26,1.26,0,0,1,1.66-.65l8.07,3.55A1.26,1.26,0,0,1,96.13,72L91.89,81.7a1.25,1.25,0,0,0,.65,1.65l9.65,4.24a1.26,1.26,0,0,1,.64,1.66Z"/><path class="cls-1" d="M91.59,30.22l3.65-8.31a2.59,2.59,0,0,1,3.42-1.33L120,30a2.59,2.59,0,0,1,1.33,3.42l-3.65,8.31a2.57,2.57,0,0,1-2.21,1.51l22.77,10a2.57,2.57,0,0,1-.38-2.65l8.7-19.79a2.59,2.59,0,0,0-1.33-3.42L83.53.22a2.59,2.59,0,0,0-3.42,1.33L71.4,21.34a2.57,2.57,0,0,1-2.2,1.51L92,32.87A2.57,2.57,0,0,1,91.59,30.22Z"/><path class="cls-1" d="M108,37.36l-6.73-3A2.57,2.57,0,0,0,98,35.53l11.39,5A2.57,2.57,0,0,0,108,37.36Z"/></g></g></svg>