<svg xmlns="http://www.w3.org/2000/svg" viewBox="0 0 77.21 57.37"><defs><style>.cls-1{fill:#1b1b1b;}</style></defs><title>資產 1</title><g id="圖層_2" data-name="圖層 2"><g id="layer"><path class="cls-1" d="M40.92,12.31l5.48,15.9a1.36,1.36,0,1,1-2.58.88L38,12.25Z"/><path class="cls-1" d="M27.57,12.31l-5.48,15.9a1.36,1.36,0,1,0,2.58.88l5.81-16.84Z"/><path class="cls-1" d="M33.66,55.14a2.23,2.23,0,0,1-2.23,2.23h0a2.23,2.23,0,0,1-2.23-2.23V30.25A2.23,2.23,0,0,1,31.43,28h0a2.23,2.23,0,0,1,2.23,2.23Z"/><path class="cls-1" d="M39.26,55.14A2.23,2.23,0,0,1,37,57.37h0a2.23,2.23,0,0,1-2.23-2.23V30.25A2.23,2.23,0,0,1,37,28h0a2.23,2.23,0,0,1,2.23,2.23Z"/><path class="cls-1" d="M42.57,44.37,40.89,12.5H41v0a.87.87,0,0,0-.08-.35V12h0a3,3,0,0,0-1.37-.93l-.65-.29a5.91,5.91,0,0,1-9.1,0l-.66.29c-.83.36-1.5.65-1.5,1.39v0h.18L26,44.37Z"/><circle class="cls-1" cx="34.25" cy="7" r="4.42"/><path class="cls-1" d="M36.52,2.74a1.62,1.62,0,0,0-1.62-1.62H33.6A1.62,1.62,0,0,0,32,2.74h0A1.62,1.62,0,0,0,33.6,4.36h1.29a1.62,1.62,0,0,0,1.62-1.62Z"/><path class="cls-1" d="M40.92,12.31l5.48,15.9a1.36,1.36,0,1,1-2.58.88L38,12.25Z"/><path class="cls-1" d="M27.57,12.31l-5.48,15.9a1.36,1.36,0,1,0,2.58.88l5.81-16.84Z"/><path class="cls-1" d="M33.66,55.14a2.23,2.23,0,0,1-2.23,2.23h0a2.23,2.23,0,0,1-2.23-2.23V30.25A2.23,2.23,0,0,1,31.43,28h0a2.23,2.23,0,0,1,2.23,2.23Z"/><path class="cls-1" d="M39.26,55.14A2.23,2.23,0,0,1,37,57.37h0a2.23,2.23,0,0,1-2.23-2.23V30.25A2.23,2.23,0,0,1,37,28h0a2.23,2.23,0,0,1,2.23,2.23Z"/><path class="cls-1" d="M42.57,44.37,40.89,12.5H41v0a.87.87,0,0,0-.08-.35V12h0a3,3,0,0,0-1.37-.93l-.65-.29a5.91,5.91,0,0,1-9.1,0l-.66.29c-.83.36-1.5.65-1.5,1.39v0h.18L26,44.37Z"/><circle class="cls-1" cx="34.25" cy="7" r="4.42"/><path class="cls-1" d="M36.52,2.74a1.62,1.62,0,0,0-1.62-1.62H33.6A1.62,1.62,0,0,0,32,2.74h0A1.62,1.62,0,0,0,33.6,4.36h1.29a1.62,1.62,0,0,0,1.62-1.62Z"/><path class="cls-1" d="M12.12,55.14a2.23,2.23,0,0,1-2.23,2.23h0a2.23,2.23,0,0,1-2.23-2.23V30.25A2.23,2.23,0,0,1,9.89,28h0a2.23,2.23,0,0,1,2.23,2.23Z"/><path class="cls-1" d="M17.72,55.14a2.23,2.23,0,0,1-2.23,2.23h0a2.23,2.23,0,0,1-2.23-2.23V30.25A2.23,2.23,0,0,1,15.49,28h0a2.23,2.23,0,0,1,2.23,2.23Z"/><path class="cls-1" d="M17.47,36.28l.84-21.5,1-5.35a3,3,0,0,0-1.37-.93l-.65-.29a5.91,5.91,0,0,1-9.1,0l-.66.29C6.67,8.86,6,9.14,6,9.88v0l1.07,5.16.89,21.2Z"/><circle class="cls-1" cx="12.71" cy="4.42" r="4.42"/><path class="cls-1" d="M15.91,10.8l5.52,18.29a1.79,1.79,0,0,0,3.39-1.17L19.23,9.42Z"/><path class="cls-1" d="M9.45,10.8,3.93,29.09A1.79,1.79,0,0,1,.54,27.92L6.12,9.42Z"/><path class="cls-1" d="M3.2,29.22H0v1H1.42a2.07,2.07,0,0,0-.31,1.09V57.37h1V31.31a1.09,1.09,0,0,1,1.09-1.09H5v-1Z"/><path class="cls-1" d="M12.12,55.14a2.23,2.23,0,0,1-2.23,2.23h0a2.23,2.23,0,0,1-2.23-2.23V30.25A2.23,2.23,0,0,1,9.89,28h0a2.23,2.23,0,0,1,2.23,2.23Z"/><path class="cls-1" d="M17.72,55.14a2.23,2.23,0,0,1-2.23,2.23h0a2.23,2.23,0,0,1-2.23-2.23V30.25A2.23,2.23,0,0,1,15.49,28h0a2.23,2.23,0,0,1,2.23,2.23Z"/><path class="cls-1" d="M17.7,33.41l.61-18.63,1-5.35a3,3,0,0,0-1.37-.93l-.65-.29a5.91,5.91,0,0,1-9.1,0l-.66.29C6.67,8.86,6,9.14,6,9.88v0l1.07,5.16.67,18.33Z"/><circle class="cls-1" cx="12.71" cy="4.42" r="4.42"/><path class="cls-1" d="M15.91,10.8l5.52,18.29a1.79,1.79,0,0,0,3.39-1.17L19.23,9.42Z"/><path class="cls-1" d="M9.45,10.8,3.93,29.09A1.79,1.79,0,0,1,.54,27.92L6.12,9.42Z"/><path class="cls-1" d="M3.2,29.22H0v1H1.42a2.07,2.07,0,0,0-.31,1.09V57.37h1V31.31a1.09,1.09,0,0,1,1.09-1.09H5v-1Z"/><polygon class="cls-1" points="58.54 23.92 68.29 23.92 71.68 41.01 55.15 41.01 58.54 23.92"/><path class="cls-1" d="M69.3,23.91c.09-1,.15-1.65.15-1.65,0-.49-.56-.75-1.26-1l-2.44-.95-1.94,1.23L62,20.26l-2.52,1c-.69.27-1.26.48-1.26,1,0,0,.06.65.15,1.65Z"/><polygon class="cls-1" points="68.26 39.3 59.29 39.3 58.44 22.37 69.11 22.37 68.26 39.3"/><circle class="cls-1" cx="63.85" cy="15.34" r="3.94"/><path class="cls-1" d="M59.16,35v20.5a1.82,1.82,0,1,0,3.65,0V35Z"/><path class="cls-1" d="M64.71,35v20.5a1.82,1.82,0,0,0,3.65,0V35Z"/><path class="cls-1" d="M69.34,22,77,35a1.51,1.51,0,0,1-2.6,1.55l-7.66-13Z"/><path class="cls-1" d="M58.73,21.68,44.61,27.14A1.51,1.51,0,0,0,45.69,30L59.8,24.51Z"/></g></g></svg>