<svg xmlns="http://www.w3.org/2000/svg" viewBox="0 0 97.32 64.21"><defs><style>.cls-1{fill:#fdb171;}.cls-2{fill:#3fb2ac;}.cls-3{fill:#f2f2f2;}.cls-4{fill:#7a5136;}.cls-5{fill:#9c6e4f;}.cls-6{fill:#40291a;}.cls-7{fill:#282828;}.cls-8{fill:#37120b;}.cls-9{fill:#663c4b;}.cls-10{fill:#8ec4f5;}.cls-11{fill:#6cc6c8;}.cls-12{fill:#582d11;}.cls-13{fill:#775570;}.cls-14{fill:#141414;}.cls-15{fill:#ffba80;}.cls-16{fill:#000e30;}.cls-17{fill:#8e8e8e;}.cls-18{fill:#00265f;}.cls-19{fill:#a5a5a5;}.cls-20{fill:#aeafb0;}.cls-21{fill:#f09c56;}</style></defs><title>資產 1</title><g id="圖層_2" data-name="圖層 2"><g id="Layer_1" data-name="Layer 1"><path class="cls-1" d="M31.45,19.67s1.64-1,2.82-1.77-1.49-3.12-1.49-3.12l-3.11,3.44Z"/><polygon class="cls-2" points="32.69 16.87 28.08 16.13 32.14 7.79 35.83 9.88 32.69 16.87"/><polygon class="cls-2" points="36.27 18.95 32.69 16.87 35.83 9.88 40.26 10.08 36.27 18.95"/><polygon class="cls-3" points="33.08 15.98 29.58 15.25 33.08 7.74 35.83 9.88 33.08 15.98"/><polygon class="cls-3" points="35.83 17.53 33.08 15.98 35.83 9.88 39.38 9.66 35.83 17.53"/><rect class="cls-4" x="21.99" y="29.66" width="41.68" height="4.73"/><polygon class="cls-5" points="63.68 29.66 21.99 29.66 27.39 22.23 58.28 22.23 63.68 29.66"/><rect class="cls-6" x="28.75" y="34.39" width="3.38" height="29.37"/><rect class="cls-6" x="53.55" y="34.39" width="3.37" height="29.37"/><path class="cls-7" d="M3.3,41.54S-1.82,11.16.7,10.48s7.09,1.37,9.38,28.59Z"/><path class="cls-7" d="M3.73,39.87l6.35-1.31s12.7,0,12.6,2.8L3.73,42Z"/><polygon class="cls-7" points="3.3 43.21 0.55 63.94 1.07 63.94 5.53 43.21 3.3 43.21"/><polygon class="cls-7" points="8.56 43.21 6.21 60.93 6.65 60.93 10.46 43.21 8.56 43.21"/><polygon class="cls-7" points="21.09 41.84 23.43 61 23 61 19.18 41.84 21.09 41.84"/><path class="cls-2" d="M18.48,17.27c.29.25,3.16,4,4.3,4.62.52.27,5.53-3.83,7-4.7L32,20.08c-.69.87-9.24,7.93-10.1,7.39C17.82,24.94,17.48,24,14,21s-5.3-4.79-3.63-6.76C14.26,9.76,18.19,17,18.48,17.27Z"/><path class="cls-8" d="M19.57,57.58a3.43,3.43,0,0,1-2.37.77c-.63-.18-1.49-1-1.69-.48a5.17,5.17,0,0,0-.33,2.57.55.55,0,0,0-.07.55c.1.38,1,.5,2.1.52s4.54.38,5.48.11,1.82-.63,2-1.09.43-1.42-.41-1.32A4.11,4.11,0,0,1,22,59a10.19,10.19,0,0,1-1.72-1.1C19.89,57.52,19.74,57.41,19.57,57.58Z"/><path class="cls-9" d="M13.95,39.53s6.54-.46,6.54.65L15.37,58.11c1.45,2.67,5.17.89,5.17.89s5.29-22.41,5.25-22.9c-.13-1.48-3.81-2.26-8.2-2.26Z"/><path class="cls-1" d="M12,11.37a24.26,24.26,0,0,0-1.92-3.44C8.86,6.12,9,4.48,9.91,3.5s2.93-2.44,4.41-2.29S16.69,3.69,17.25,5a4.79,4.79,0,0,1,.3,2.6l.06,1.75A7.27,7.27,0,0,0,16.22,11c-.12.2,0,.68-.16.88s-.28.25-.33.42A1.52,1.52,0,0,0,16,13.44Z"/><path class="cls-1" d="M17.62,9.33V9.16L16.44,8.11a.74.74,0,0,1-1.08.07L11.14,4.4a10.86,10.86,0,0,0,.73,4.78A7.76,7.76,0,0,1,11.35,12a31.91,31.91,0,0,0,3.71.8c-.32-.88-.57-2.62,1.36-2.29s1.75-.41,1.62-.95C17.77,9.51,17.64,9.69,17.62,9.33Z"/><path class="cls-1" d="M15.73,2.13c.27.25,1.73.66,2.23,2.1.28.79.22.71.11,1-.18.47.27,1,.53,1.23s.81.64.29,1-.31.56-.11.71-.09.4-.16.49.32.25.13.45-.39.2-.39.38.24.85-.06,1.12-1.18.16-1.62.17a1.7,1.7,0,0,0-1.29.44c-1.29,1.36-1,1.89-1,1.89a3.18,3.18,0,0,1-2.25-.74c-.31-.22.56.22.63-.41.13-1-3.22-5.49-1.54-5.72.08,0,3.51-1.68,3.51-1.68Z"/><path d="M8.49,4.59C9,2.67,9.71.75,11.88.54S16.41,1,16.6,0c0,0,1.16,2,.54,3-.24-.37-2.67,3.32-3.05,3.87s-.16-1-1-.9S12,7.75,12.3,8.46c.26.54-.52,1.78-.52,1.78l.06.49L10.55,9.46S8,6.5,8.49,4.59Z"/><path d="M16.6,10.74h.07c.45,0,1.32.1,1.62-.17a.62.62,0,0,0,.15-.52s-2.48.27-3.18-.42c-.91-.87-.79-2.1-1.34-4s-.06,1.24-.06,1.24.28,3.71,2.11,3.78A3.09,3.09,0,0,1,16.6,10.74Z"/><path class="cls-10" d="M7.38,33.57s.34-11.34.35-12.69.42-7.66,3-8.62l.71-1.08,4.24,1.77a11.87,11.87,0,0,1,2.57,5.71A26.32,26.32,0,0,1,17.52,27c-.67,2.6-1.93,7.38-1.93,7.38Z"/><path class="cls-11" d="M7.38,33.57s.34-11.34.35-12.69.42-7.66,3-8.62l.71-1.08,4.24,1.77a11.87,11.87,0,0,1,2.57,5.71A26.32,26.32,0,0,1,17.52,27c-.67,2.6-1.93,7.38-1.93,7.38Z"/><path class="cls-1" d="M20.7,28.75a10.25,10.25,0,0,0,1.66-.7c.39-.27,4.31-.19,4.6.9S26.13,30,25.11,30a27.92,27.92,0,0,0-4.63.77C19.94,31,20.7,28.75,20.7,28.75Z"/><path class="cls-12" d="M21.89,59.3a3.69,3.69,0,0,1-2.58.67c-.67-.23-1.54-1.12-1.77-.61a5.53,5.53,0,0,0-.5,2.72.6.6,0,0,0-.11.58c.08.41,1,.59,2.21.68S24,64,25,63.79s2-.57,2.15-1,.54-1.49-.36-1.43A4.46,4.46,0,0,1,24.36,61a11.24,11.24,0,0,1-1.76-1.28C22.23,59.26,22.09,59.13,21.89,59.3Z"/><path class="cls-13" d="M7.36,32.17s9.72.44,12.94.76c1.84.18,7.7,1,7.61,2.5-.16,2.58-4.59,24.86-4.59,24.86a10.38,10.38,0,0,1-5.82-.62l4.29-19.73s-13,1.57-14-.55C6.67,37.06,7.36,32.17,7.36,32.17Z"/><polygon class="cls-11" points="16.99 33.84 6.7 36.48 7.87 18.84 18.09 24.13 16.99 33.84"/><path class="cls-11" d="M17.47,29.58l-.29,2.59c-2.77-.17-8.54-.68-8.57-1.37a43.27,43.27,0,0,1,.54-9.69c.53-4.53.74-7.1,3.3-6.82,5.91.64,1.7,8.25,1.66,8.63a27.5,27.5,0,0,0-.6,4.94C13.55,28.17,15.49,28.89,17.47,29.58Z"/><path class="cls-11" d="M17.75,27.47l-.57,4.69c-3.33-.85-7.43-1.91-7.45-2.54a43.15,43.15,0,0,1,.54-9.69c.53-4.53.62-4.88,3.15-4.38,2,.39,2,3.38,2,3.76S14.18,25.75,14.33,27C14.36,27.3,16.13,27.33,17.75,27.47Z"/><path class="cls-2" d="M14.56,22.33a27.41,27.41,0,0,0-.6,4.94c.07.58,5.66.6,7.17.93l-.26,3.61c-1.1-.08-11.78-.59-11.81-1.6a43.25,43.25,0,0,1,.54-9.69c.53-4.53.74-7.1,3.3-6.82C18.82,14.34,14.61,22,14.56,22.33Z"/><polygon class="cls-7" points="18.57 43.21 21.31 63.94 20.8 63.94 16.34 43.21 18.57 43.21"/><path class="cls-14" d="M19.12,40.74H3.81a2.68,2.68,0,0,0-.52,0v2.43a3,3,0,0,0,.52,0H19.12c1.09,0,2-.57,2-1.26S20.21,40.74,19.12,40.74Z"/><path class="cls-1" d="M31.24,16.59c.53-.48.91-2.3,1.25-2.07s.14,2.07-.33,2.79S31.24,16.59,31.24,16.59Z"/><circle class="cls-6" cx="69.05" cy="61.08" r="2.68"/><path class="cls-15" d="M65.91,25.24s-2.44-1.31-4.25-.5S58.89,26.36,60,26.61s2.21-.32,3.5,0,2.87.79,2.87.79Z"/><path class="cls-16" d="M62.74,58.82a2.88,2.88,0,0,0,2,.56c.53-.17,1.22-.86,1.4-.46a4.31,4.31,0,0,1,.36,2.14.46.46,0,0,1,.08.46c-.07.32-.8.45-1.74.5a29.71,29.71,0,0,1-4.59.27c-.81-.19-1.54-.47-1.67-.85s-.41-1.18.3-1.12a3.51,3.51,0,0,0,1.9-.23,9.23,9.23,0,0,0,1.4-1C62.48,58.79,62.6,58.69,62.74,58.82Z"/><path class="cls-17" d="M59.62,41.74,62,59.41a8.59,8.59,0,0,0,2.19.37c1.71.1,2.28-.53,2.28-.53l-.69-16.67Z"/><path class="cls-18" d="M64.25,60.51a3,3,0,0,0,2.1.55c.54-.19,1.25-.92,1.44-.5a4.53,4.53,0,0,1,.41,2.22.5.5,0,0,1,.09.48c-.07.34-.82.48-1.8.55a31.12,31.12,0,0,1-4.77.36c-.84-.19-1.61-.46-1.75-.85s-.44-1.22.29-1.17a3.63,3.63,0,0,0,2-.27,9.37,9.37,0,0,0,1.44-1C64,60.48,64.09,60.38,64.25,60.51Z"/><path class="cls-19" d="M60.7,42.83l2.76,18.3a8.84,8.84,0,0,0,2.28.35c1.78.08,2.36-.59,2.36-.59l-1-17.3Z"/><path class="cls-1" d="M76.56,4.5l-2,1.7a46.42,46.42,0,0,0,3.84,7.31.92.92,0,0,1,0,.79c.56.77,4-1.25,3.89-1.59a5.55,5.55,0,0,1,.51-2.36s-.13-4.22,0-4.27S76.56,4.5,76.56,4.5Z"/><path class="cls-20" d="M73.7,8.55s.61-.07.69-.48l0,.36A1.24,1.24,0,0,1,73.7,8.55Z"/><path class="cls-1" d="M74.46,5a3.12,3.12,0,0,0-.62,2.13c.06.77.14.81.3,1,.28.37-.07.81-.24,1.11-.26.46-.62.86-.06,1s.49.43.34.62.17.33.26.38-.22.31,0,.43.41.07.45.23,0,.81.32,1,1.1-.16,1.51-.27a2.34,2.34,0,0,1,1.51.2c.24.15,0,.56.22.69,1.06.63-.56.65.37-1.29a19.41,19.41,0,0,1,2-2.26L77,6.66Z"/><path class="cls-20" d="M74.23,5.31c-.09-.62,1.1-2.7,3.38-3.34s3.71-.15,5.6,2.51a4.72,4.72,0,0,1,.92,2.79,10,10,0,0,1-1.79,3.88,3.33,3.33,0,0,0-.49,1.21A5.09,5.09,0,0,1,79.4,10c0-.13.63.41.57-.19a1.59,1.59,0,0,1,.39-1.22.92.92,0,0,0-.15-1A.88.88,0,0,0,79,7.6c-.13.21-.3.51-.3.51s-.77-.24-.92-.6-.22-1-.69-1.1a4.82,4.82,0,0,1-1.81-.49A5.39,5.39,0,0,1,74.23,5.31Z"/><path class="cls-21" d="M78.88,10.6h0Z"/><path class="cls-21" d="M78.88,10.6c.41,1.09-.43,2.91-.43,2.91.09-.49-1.55-.9-1.71-.88h0l-.32.1C79,11.92,78.91,10.75,78.88,10.6Z"/><path class="cls-20" d="M74.23,5.31S79,6.5,78.94,9.9c0,2.33,3.1,4.1,4.87-.26S80.62,2,80.62,2Z"/><path class="cls-13" d="M85.12,18.53s0,16.8.29,18.42-.73,4.87-7,4.95a55.14,55.14,0,0,1-8-.23L68,49.18l-9.39-3.43s1.62-7.55,3.49-9.33S73.5,33.17,73.5,33.17l.2-3.87Z"/><path class="cls-13" d="M73.55,31.78l.16-2.48C73.49,17,78.61,14.22,78.61,14.22c1.22,0,3.72-2.3,3.72-2.3a31.56,31.56,0,0,1,2.47,5.28c1.05,2.79,0,10.25-.34,14.59Z"/><path class="cls-9" d="M73.7,27.5l-.06,2.79c6-1,6-1.53,7.29-4.45A19.59,19.59,0,0,0,82.51,21Z"/><path class="cls-13" d="M80.57,15.81c-2-.45-3.44-.23-5.87,7.88l-10.32,0-.07,4.4s11.48.73,12.58.23,4-4.19,5-6.18C82.64,20.57,83.36,16.45,80.57,15.81Z"/><circle class="cls-6" cx="92.62" cy="61.08" r="2.68"/><rect class="cls-5" x="64.84" y="40.28" width="32.48" height="20.1" rx="3.54" ry="3.54"/><rect class="cls-5" x="79.21" y="16.31" width="18.12" height="29.54" rx="3.54" ry="3.54"/><circle class="cls-20" cx="80.54" cy="11.61" r="1.01"/><circle class="cls-20" cx="81.9" cy="11.61" r="1.01"/><circle class="cls-20" cx="74.23" cy="4.5" r="1.01"/><circle class="cls-20" cx="75.06" cy="3.03" r="1.01"/><circle class="cls-20" cx="76.38" cy="2.48" r="1.01"/><circle class="cls-20" cx="77.87" cy="1.72" r="1.01"/><circle class="cls-20" cx="79.88" cy="2.02" r="1.01"/><circle class="cls-20" cx="81.55" cy="3.03" r="1.01"/><circle class="cls-20" cx="75.62" cy="6" r="1.01"/><circle class="cls-20" cx="77.15" cy="7.01" r="1.01"/><circle class="cls-20" cx="78.16" cy="8.56" r="1.01"/><circle class="cls-20" cx="78.88" cy="10.46" r="1.01"/><circle class="cls-20" cx="79.21" cy="9.45" r="1.01"/><circle class="cls-20" cx="82.86" cy="10.46" r="1.01"/><circle class="cls-20" cx="83.57" cy="9.02" r="1.01"/><circle class="cls-20" cx="83.57" cy="7.01" r="1.01"/><circle class="cls-20" cx="83.36" cy="5.51" r="1.01"/><circle class="cls-20" cx="82.86" cy="4.22" r="1.01"/></g></g></svg>