<svg xmlns="http://www.w3.org/2000/svg" width="223.75" height="223.236" viewBox="0 0 223.75 223.236">
  <g id="Group_119" data-name="Group 119" transform="translate(-3681.812 -370)">
    <g id="Rectangle_148" data-name="Rectangle 148" transform="translate(3689.457 370)" fill="#676565" stroke="#676565" stroke-linecap="round" stroke-linejoin="bevel" stroke-width="5">
      <rect width="208.461" height="208.461" stroke="none"/>
      <rect x="2.5" y="2.5" width="203.461" height="203.461" fill="none"/>
    </g>
    <text id="慢慢_享退" data-name="慢慢
享退" transform="translate(3784.11 452.254)" fill="#fff" font-size="67" font-family="PottaOne-Regular, Potta One"><tspan x="-67" y="0">慢慢</tspan><tspan x="-67" y="97">享退</tspan></text>
    <g id="Polygon_4" data-name="Polygon 4" transform="matrix(0.899, 0.438, -0.438, 0.899, 3709.083, 418.209)" fill="none" opacity="0.7">
      <path d="M163.952,0,218.6,31.105,163.952,62.21H54.651L0,31.105,54.651,0Z" stroke="none"/>
      <path d="M 55.70932006835938 4.000003814697266 L 8.086517333984375 31.10502815246582 L 55.70932006835938 58.21006774902344 L 162.8935699462891 58.21006774902344 L 210.5163879394531 31.10503578186035 L 162.8935699462891 4.000003814697266 L 55.70932006835938 4.000003814697266 M 54.65072631835938 3.814697265625e-06 L 163.9521636962891 3.814697265625e-06 L 218.6028900146484 31.10503578186035 L 163.9521636962891 62.21006774902344 L 54.65069580078125 62.21006774902344 L 0 31.10503578186035 L 54.65072631835938 3.814697265625e-06 Z" stroke="none" fill="#fff8f8"/>
    </g>
    <g id="Polygon_5" data-name="Polygon 5" transform="matrix(0.574, -0.819, 0.819, 0.574, 3689.209, 557.553)" fill="none" opacity="0.45">
      <path d="M163.952,0,218.6,31.105,163.952,62.21H54.651L0,31.105,54.651,0Z" stroke="none"/>
      <path d="M 55.70932006835938 4.000003814697266 L 8.086517333984375 31.10502815246582 L 55.70932006835938 58.21006774902344 L 162.8935699462891 58.21006774902344 L 210.5163879394531 31.10503578186035 L 162.8935699462891 4.000003814697266 L 55.70932006835938 4.000003814697266 M 54.65072631835938 3.814697265625e-06 L 163.9521636962891 3.814697265625e-06 L 218.6028900146484 31.10503578186035 L 163.9521636962891 62.21006774902344 L 54.65069580078125 62.21006774902344 L 0 31.10503578186035 L 54.65072631835938 3.814697265625e-06 Z" stroke="none" fill="#fff8f8"/>
    </g>
  </g>
</svg>
