<svg xmlns="http://www.w3.org/2000/svg" width="404.588" height="112.93" viewBox="0 0 404.588 112.93">
  <g id="Group_120" data-name="Group 120" transform="translate(-2090.412 198.93)">
    <text id="慢慢享退" transform="translate(2353 -113)" font-size="71" font-family="PottaOne-Regular, Potta One"><tspan x="-142" y="0">慢慢享退</tspan></text>
    <rect id="Rectangle_148" data-name="Rectangle 148" width="100.921" height="100.921" rx="20" transform="translate(2095.54 -194.074)" fill="#f7e4a8"/>
    <g id="Polygon_4" data-name="Polygon 4" transform="matrix(0.899, 0.438, -0.438, 0.899, 2105.041, -170.734)" fill="none" opacity="0.7">
      <path d="M79.373,0l26.458,15.059L79.373,30.117H26.458L0,15.059,26.458,0Z" stroke="none"/>
      <path d="M 27.51630401611328 3.999994277954102 L 8.086494445800781 15.05867767333984 L 27.51630401611328 26.11736106872559 L 78.31448364257813 26.11736106872559 L 97.74429321289063 15.05867767333984 L 78.31448364257813 3.999994277954102 L 27.51630401611328 3.999994277954102 M 26.45769500732422 -5.7220458984375e-06 L 79.37309265136719 -5.7220458984375e-06 L 105.8307952880859 15.05867767333984 L 79.37309265136719 30.11736106872559 L 26.45769500732422 30.11736106872559 L -7.62939453125e-06 15.05867767333984 L 26.45769500732422 -5.7220458984375e-06 Z" stroke="none" fill="#fff8f8"/>
    </g>
    <g id="Polygon_6" data-name="Polygon 6" transform="translate(2090.412 -134.538) rotate(-20)" fill="none" opacity="0.7">
      <path d="M79.373,0l26.458,15.059L79.373,30.117H26.458L0,15.059,26.458,0Z" stroke="none"/>
      <path d="M 27.51630401611328 3.999994277954102 L 8.086494445800781 15.05867767333984 L 27.51630401611328 26.11736106872559 L 78.31448364257813 26.11736106872559 L 97.74429321289063 15.05867767333984 L 78.31448364257813 3.999994277954102 L 27.51630401611328 3.999994277954102 M 26.45769500732422 -5.7220458984375e-06 L 79.37309265136719 -5.7220458984375e-06 L 105.8307952880859 15.05867767333984 L 79.37309265136719 30.11736106872559 L 26.45769500732422 30.11736106872559 L -7.62939453125e-06 15.05867767333984 L 26.45769500732422 -5.7220458984375e-06 Z" stroke="none" fill="#fff8f8"/>
    </g>
    <g id="Polygon_5" data-name="Polygon 5" transform="matrix(0.574, -0.819, 0.819, 0.574, 2095.42, -103.275)" fill="none" opacity="0.45">
      <path d="M79.373,0l26.458,15.059L79.373,30.117H26.458L0,15.059,26.458,0Z" stroke="none"/>
      <path d="M 27.51630401611328 3.999994277954102 L 8.086494445800781 15.05867767333984 L 27.51630401611328 26.11736106872559 L 78.31448364257813 26.11736106872559 L 97.74429321289063 15.05867767333984 L 78.31448364257813 3.999994277954102 L 27.51630401611328 3.999994277954102 M 26.45769500732422 -5.7220458984375e-06 L 79.37309265136719 -5.7220458984375e-06 L 105.8307952880859 15.05867767333984 L 79.37309265136719 30.11736106872559 L 26.45769500732422 30.11736106872559 L -7.62939453125e-06 15.05867767333984 L 26.45769500732422 -5.7220458984375e-06 Z" stroke="none" fill="#fff8f8"/>
    </g>
    <g id="Polygon_7" data-name="Polygon 7" transform="translate(2138.005 -89.036) rotate(-103)" fill="none" opacity="0.45">
      <path d="M79.373,0l26.458,15.059L79.373,30.117H26.458L0,15.059,26.458,0Z" stroke="none"/>
      <path d="M 27.51630401611328 3.999994277954102 L 8.086494445800781 15.05867767333984 L 27.51630401611328 26.11736106872559 L 78.31448364257813 26.11736106872559 L 97.74429321289063 15.05867767333984 L 78.31448364257813 3.999994277954102 L 27.51630401611328 3.999994277954102 M 26.45769500732422 -5.7220458984375e-06 L 79.37309265136719 -5.7220458984375e-06 L 105.8307952880859 15.05867767333984 L 79.37309265136719 30.11736106872559 L 26.45769500732422 30.11736106872559 L -7.62939453125e-06 15.05867767333984 L 26.45769500732422 -5.7220458984375e-06 Z" stroke="none" fill="#fff8f8"/>
    </g>
  </g>
</svg>
