<svg xmlns="http://www.w3.org/2000/svg" viewBox="0 0 218 136"><defs><style>.cls-1{fill:none;stroke:#000;stroke-linejoin:round;stroke-width:10px;}</style></defs><title>資產 5</title><g id="圖層_2" data-name="圖層 2"><g id="圖層_1-2" data-name="圖層 1"><path class="cls-1" d="M91.95,38a16.78,16.78,0,0,1,5.44-12.79A51.49,51.49,0,1,0,16.87,89.39l-1.23,30.08,26-13.64A51.51,51.51,0,0,0,108,56.5c0-.19,0-.38,0-.57C98.9,54.92,92.36,47.12,91.95,38Z"/><path d="M77,61c7.72,0,7.73-12,0-12s-7.73,12,0,12Z"/><path d="M148.64,59.21c7.72,0,7.73-12,0-12s-7.73,12,0,12Z"/><path d="M166.23,59.21c7.72,0,7.73-12,0-12s-7.73,12,0,12Z"/><path d="M181.05,59.21c7.72,0,7.73-12,0-12s-7.73,12,0,12Z"/><path d="M56,61c7.72,0,7.73-12,0-12s-7.73,12,0,12Z"/><path d="M38,61c7.72,0,7.73-12,0-12s-7.73,12,0,12Z"/><path class="cls-1" d="M118.54,12v8c9.84.29,17.08,8.42,17.51,18s-8.27,17.71-17.51,18v50.44H160L194,131l2.48-24.54H213V12Z"/></g></g></svg>