<svg xmlns="http://www.w3.org/2000/svg" viewBox="0 0 222.18 174.96"><defs><style>.cls-1,.cls-2{fill:#bd4f6c;}.cls-1,.cls-3,.cls-4,.cls-5{stroke:#000;stroke-miterlimit:10;stroke-width:5px;}.cls-3{fill:#fcfbfa;}.cls-5{fill:none;}</style></defs><title>資產 5</title><g id="圖層_2" data-name="圖層 2"><g id="圖層_2-2" data-name="圖層 2"><path class="cls-1" d="M56.29,144.35c2.56,1.49-6.62,9.83-6.62,9.83a61.27,61.27,0,0,1-9.88,5.7c-4.29,2.12-7.76,4.38-9,2.42-1.63-2.47,0-9,0-9l1.67-5.74s2.6-9.46,5.39-10c2.37-.49,6.2,3.16,8.46,4C48.76,142.45,54,143,56.29,144.35Z"/><path class="cls-2" d="M122.75,84.12c19.15-2.18,45.13-20.83,35.24-42.88-3-8-1.92-17,3.11-23,3-4,11-8.95,7.06-14-3-3-6,0-9,1-13,3.94-26,8.88-36.1,20.83C113,39,109.93,54,109.84,70c0,0-1.53,9.5.46,11.51C110.3,81.52,118.21,84.64,122.75,84.12Z"/><path d="M122.75,87.12c14.74-1.91,30.74-10.51,37.52-24.29a26.56,26.56,0,0,0,1.14-21.12c-1.76-4.88-2.78-9.73-1.4-14.87s4.79-8,8.14-11.66c2.11-2.32,4.25-5.08,4-8.4A7.17,7.17,0,0,0,166,0c-3.86-.43-8.38,2.5-12,3.67A107.42,107.42,0,0,0,140.54,9C122.16,17.94,111.09,34.66,108,54.65c-.77,5-.74,10-1.13,15-.25,3.26-.94,6.47-.41,9.75,1.09,6.74,10.5,8,16.28,7.68,3.84-.2,3.87-6.2,0-6A24.86,24.86,0,0,1,114,79.63c-.92-.29-1.81-.67-2.73-.95,1,.3.82,1.07,1.24.48a12.75,12.75,0,0,0-.2-2.56,163,163,0,0,1,1-16.38C115,43,122.45,26.91,137.48,17.56c6.81-4.24,14.22-6.63,21.75-9.2,1.1-.38,2.85-1.53,4-1.67,3.84-.47,2.59,2,1.08,3.79-2.09,2.46-4.59,4.47-6.48,7.12a25.58,25.58,0,0,0-4.22,18.31c1,7.12,4.87,12.82,2.84,20.23-3.81,13.92-20.22,23.23-33.71,25C119,81.61,118.93,87.62,122.75,87.12Z"/><path class="cls-2" d="M150.43,60l17-7.25a104.77,104.77,0,0,1,23-.89s13,.06,17,6.08c0,0,6,5,8,9,.89,1.79,5.77,6.17,3,9-5.32,5.38-25,.44-30,3.86-5.28,3.6.14,13-22.06,12.9-10,0-3,2-37-9.17l-6.72-3.5Z"/><path d="M151.94,62.63l14.35-6.12a24.33,24.33,0,0,1,2.26-1c.72-.22-.79.21.53,0a94,94,0,0,1,14.4-1c5.94,0,14.38-.21,19.49,3.25C206.19,60,218.06,72,214.82,74.74c-1.93,1.64-7.49,1-9.81,1-4.1,0-8.25-.4-12.35,0-4.91.46-7.77,2.37-9.75,6.82-2.6,5.84-6.93,6.89-13.3,7.2a80,80,0,0,1-9.85.15c-3.49-.27-8.61-2.24-12.48-3.49-8-2.59-15.76-5-23.21-8.84v5.18l27.85-20.08c3.1-2.24.11-7.44-3-5.18L121.06,77.53c-1.7,1.23-2.17,4.05,0,5.18,7.6,4,15.41,6.44,23.58,9.1,4.61,1.5,9.39,3.44,14.25,4,9.18,1,23.4,1.06,28.32-8.16.73-1.37,1-3.48,2.13-4.63,2.29-2.42,7.9-1.44,10.88-1.37,6,.14,17.89,1.75,21.32-5,1.85-3.63-.68-6.93-2.66-9.79A74.12,74.12,0,0,0,210,56.24c-5.16-5.17-11.21-6.8-18.39-7.31-8.08-.57-17.94-1.34-25.74,1.29-5.76,1.94-11.35,4.84-16.94,7.22C145.37,59,148.43,64.13,151.94,62.63Z"/><path class="cls-2" d="M111.3,82.53c10-6,22.34-9.13,38-3.82,0,0,18,4.08,21,7.1,0,0,7,2,15.94,14.07a29.54,29.54,0,0,1,5.92,18c0,8.54,1.93,16,.88,27-.8,8.42-14.36-17.94-27.91-19.13-4.65-.41-4,8-18,4.92s-22.94-14.11-22.94-14.11-15.83-18.53-13.89-24.06C110.25,92.52,108.47,84.21,111.3,82.53Z"/><path d="M112.81,85.12c11.82-6.83,22.85-6.92,35.77-3.51,6.23,1.64,13,2.75,18.75,5.78a46.55,46.55,0,0,1,14.48,11.68,30.39,30.39,0,0,1,5,7.71c2.62,5.94,2.14,12.19,2.65,18.49.25,3,.58,6.06.72,9.1.12,2.44-.83,6.44-.05,8.62l-.12,1.62q3.93-.29,2.19-1.18c-.05-.25-1-.91-1.18-1.09-1.22-1.14-2.32-2.45-3.44-3.69-5.14-5.65-10.72-12.24-18.12-14.91-2.54-.92-5.33-1.49-7.83-.17-2.34,1.23-3.59,3.61-6.23,4.42-9.29,2.86-21.29-5.35-27.45-11.65a88.09,88.09,0,0,1-9.83-12.55c-2-2.92-4.67-6.48-5.07-10.08-.23-2.1-1.3-7.71.33-9.08,2.95-2.5-1.31-6.73-4.24-4.24-3.12,2.65-2.65,7.59-2.1,11.23,0,.32.23,2.27.22,1.07s-.2.77-.19,1.12a14.55,14.55,0,0,0,1.46,5.31c3.11,7.08,8.31,13.58,13.33,19.42A48.18,48.18,0,0,0,141.11,132c5.09,1.93,11.42,3.38,16.74,1.5a13.85,13.85,0,0,0,4.36-2.58c.74-.62,1.62-2,2.58-2.2,3.67-.92,9.38,4.73,11.67,6.89,3.39,3.2,6.33,6.82,9.58,10.16,1.72,1.77,4.14,4.4,6.92,3.63,4.15-1.14,3.35-7.85,3.35-10.9,0-6.89-1-13.74-1.18-20.63a35,35,0,0,0-4.5-16.83C186.51,94,179.91,86.92,172.4,83.44c-.41-.19-.89-.3-1.29-.52,1.76,1-.06-.31-.76-.71a34.89,34.89,0,0,0-6.21-2.54c-4.47-1.51-9.06-2.53-13.61-3.76C136,72,123,72.29,109.78,79.94,106.44,81.87,109.46,87.06,112.81,85.12Z"/><path class="cls-1" d="M43.43,62.68s-5-12.52,2.07-23.48c0,0,1-4,11-8.95,0,0,2-2,11-2.95s10.64-8.89,14-6.94c3.9,2.25-5.06,14-.08,18s-2.07,16-2.07,16l-4,2Z"/><path class="cls-1" d="M103.11,122.49l4-1c5.29-.42,8,0,11,1.05a9.4,9.4,0,0,1,5,4c.54.83.44,1.45,1,2,1,1,0,4,3,4,8.25,0,20,13.42,14.93,15.07-6,2-10,7-28,1.87s-17.94-14.08-17.94-14.08Z"/><path class="cls-1" d="M24.4,135.52c1.66,1.53,1,1,8.39,4.85,1.32.7,4.3,1.52,5.24,1.94,9.51,4.28,19.41,6.57,28,6.61,0,0,8.38,2,23.08-3.77a27.2,27.2,0,0,0,10.51-6.74,33.49,33.49,0,0,0,7.38-9.67s7.39-10.64,7.42-17.43,1-10.94-3-21.36c-.85-2.18-1.47-4-2.2-5.5-3-6.15-3.68-7.46-6.18-10-.74-.76-2.32-2.14-3.15-2.91a68.22,68.22,0,0,0-8.39-6.79,29.59,29.59,0,0,0-8-3.85,57.58,57.58,0,0,0-44.37,2.36C31.27,67.14,24,71.78,19.48,79.08c0,0-8.71,14.73-8.71,27.34s10.33,25.3,10.33,25.3S23.36,134.55,24.4,135.52Z"/><path class="cls-3" d="M4.08,83.32c-4.59,8.17,1.45,27.2,10.11,30.83,3.2,1.34,8.13,3.31,11.58,2.95,4.83-.51,7.09-1.37,11.84-2.68,2.51-.69,3.64-.89,7.86-6,1.76-2.12,3.81-5.81,4-8.55a48.93,48.93,0,0,0-.85-13.66,21.8,21.8,0,0,0-8.1-12.85C35.4,69.6,28.37,69.58,22,70.6c-3.74.6-6.07,1.85-10.36,4.24L5.92,79.69Z"/><path class="cls-4" d="M27.74,84.13c0,4-4.38,7.42-8.35,6.94-4.56-.56-7.22-4.86-7.21-7.28a7.24,7.24,0,0,1,7.28-7.21C25.1,76.61,27.76,80.13,27.74,84.13Z"/><path class="cls-4" d="M90.56,24.43"/><path class="cls-5" d="M135.23,85.56"/><path class="cls-1" d="M89.34,134.56c2,.82,2.28,1.29,2.9,3.64.83,3.16,1.87,8.38,1.72,10.8a45.75,45.75,0,0,1-.72,5.82A94.59,94.59,0,0,1,87.37,171c-.78,1.33-5.26,1.38-5.26,1.38s-15.29,1.77-23.1-10.8S51.25,150,54.73,148.34c4.77-2.22,14-3.3,18.92-5.07C78.32,141.61,84.76,132.68,89.34,134.56Z"/><path d="M25,134.28a37.43,37.43,0,0,0,7.25-6.16c2.58-2.86-1.65-7.11-4.24-4.24a31.23,31.23,0,0,1-6,5.22c-3.22,2.11-.21,7.31,3,5.18Z"/><circle class="cls-2" cx="70.3" cy="137.51" r="19.5"/></g></g></svg>